<?xml version="1.0" encoding="utf-8"?>
<!-- Generator: Adobe Illustrator 21.0.2, SVG Export Plug-In . SVG Version: 6.00 Build 0)  -->
<svg version="1.1" id="Layer_1" xmlns="http://www.w3.org/2000/svg" xmlns:xlink="http://www.w3.org/1999/xlink" x="0px" y="0px"
	 viewBox="0 0 750 250.2" style="enable-background:new 0 0 750 250.2;" xml:space="preserve">
<style type="text/css">
	.st0{fill:none;}
	.st1{fill:#FFD55C;}
	.st2{fill:#FFFFFF;}
	.st3{fill:#D1DEE5;}
	.st4{fill:#45525B;}
	.st5{fill:#92ADBF;}
	.st6{fill:#50667E;}
	.st7{opacity:0.4;fill:#ACC0D1;}
	.st8{fill:#9BB9CF;}
	.st9{fill:#586C7A;}
	.st10{fill:#718595;}
	.st11{fill:#E7EDF2;}
	.st12{fill:#576672;}
	.st13{fill:#4C5D6C;}
	.st14{fill:#443D36;}
	.st15{fill:#5F717E;}
	.st16{opacity:0.4;}
	.st17{fill:#FF9975;}
	.st18{fill:#E74E3E;}
	.st19{fill:#64B9C0;}
	.st20{opacity:0.3;}
	.st21{fill:#BCB9BF;}
	.st22{fill:#E5E3EA;}
	.st23{opacity:0.4;fill:#5E5D60;}
	.st24{clip-path:url(#SVGID_2_);}
	.st25{fill:#AFC8DB;}
	.st26{opacity:0.6;}
	.st27{opacity:0.3;fill:#4E5C67;}
	.st28{opacity:0.8;}
	.st29{fill:#4B8B90;}
	.st30{opacity:0.2;}
	.st31{opacity:0.1;clip-path:url(#SVGID_4_);fill:#576672;}
	.st32{fill:#FFF5DC;}
	.st33{fill:#E5DAC1;}
	.st34{fill:#FCBB51;}
	.st35{fill:#FF9B4A;}
	.st36{fill:#CFDBE5;}
	.st37{fill:#687B8A;}
	.st38{fill:#DBE4EB;}
	.st39{fill:#D2CFD6;}
	.st40{fill:#94AEC4;}
	.st41{fill:#E44B55;}
	.st42{fill:#EBB818;}
	.st43{fill:#66B548;}
	.st44{opacity:0.4;fill:#576672;}
	.st45{fill:#F3F6F8;}
	.st46{opacity:0.2;fill:#45525B;}
	.st47{opacity:0.2;fill:#576672;}
	.st48{fill:#C3D3E2;}
	.st49{opacity:0.5;}
	.st50{fill:#DBDFE2;}
	.st51{opacity:0.4;fill:#FCBB51;}
</style>
<g>
	<g>
		<rect class="st0" width="250" height="250"/>
		<g>
			<g>
				<circle class="st1" cx="202" cy="101.7" r="14.2"/>
				<g>
					<path class="st2" d="M198.4,99.1h-3.1c-0.8,0-1.2,0.3-1.2,1v3.2c0,0.7,0.4,1.1,1.2,1.1h3.1l0,1.2c0,0-1.9,0.1-3.7,0.1
						c-1.4,0-2.1-1-2.1-2.3v-3.6c0-1.3,0.7-2.2,2.1-2.2c2.1,0,3.7,0.1,3.7,0.1L198.4,99.1z"/>
					<path class="st2" d="M201.9,102.2h-2.3v-1.2h2.3v-2.3h1.2v2.3h2.3v1.2h-2.3v2.3h-1.2V102.2z"/>
					<path class="st2" d="M209,102.2h-2.3v-1.2h2.3v-2.3h1.2v2.3h2.3v1.2h-2.3v2.3H209V102.2z"/>
				</g>
			</g>
			<g>
				<g>
					<polygon class="st3" points="156,197.7 150.9,189 146.7,195.3 					"/>
					<polygon class="st3" points="159.8,196.5 164.2,189 168.5,195.3 					"/>
					<polygon class="st3" points="163,192.1 157.6,189 152.6,192 157.6,197 					"/>
					<polygon class="st4" points="157.6,205.5 154.1,195.3 154.1,195.3 154.1,195.3 154.1,195.3 146.7,195.3 146.6,195.3 
						157.6,205.5 157.6,205.5 157.6,205.5 					"/>
					<polygon class="st4" points="157.6,205.5 161,195.3 161,195.3 161,195.3 161,195.3 168.5,195.3 168.5,195.3 157.6,205.5 
						157.6,205.5 157.6,205.5 					"/>
					<polygon class="st2" points="150.9,189 150.9,189 150.9,189 152.1,195.3 152.1,195.3 154.6,192.4 157.6,189 					"/>
					<polygon class="st5" points="152.1,195.3 157.6,195.3 157.6,195.3 154.6,192.4 					"/>
					<polygon class="st2" points="164.2,189 157.6,189 160.7,192.3 163.4,195.3 163.4,195.3 164.2,189 164.2,189 					"/>
					<polygon class="st6" points="163.4,195.3 157.6,195.3 152.1,195.3 152.1,195.3 157.6,205.5 163.4,195.3 					"/>
					<polygon class="st5" points="160.7,192.3 157.6,195.3 163.4,195.3 					"/>
				</g>
			</g>
			<g>
				<g>
					<path class="st2" d="M224.1,147.5c0-0.5,0-1,0-1.5c0-0.7,0-1.4,0-1.7c0-0.1,0-0.2,0-0.2c0-1.4-0.6-2.3-1-2.7
						c-0.9-0.8-1.9-0.8-2.2-0.8h-3.6h-3.5v2.7h6.1h1l0,0c0.3,0,0.5,0.2,0.5,0.6c0,0,0,3.7,0,4.9c0,1.2-0.6,1.3-0.9,1.4l-9.6,1.9
						l0.5,2.6l9.7-2l0,0c0.8-0.2,1.6-0.5,2.2-1.3c0.5-0.7,0.7-1.7,0.7-3.2C224.1,148,224.1,147.8,224.1,147.5L224.1,147.5z"/>
					<polygon class="st7" points="211,152.1 211.5,154.7 218.5,153.3 218.5,150.5 					"/>
					<polygon class="st7" points="217.2,140.6 213.7,140.6 213.7,143.3 218.5,143.3 218.5,140.6 					"/>
				</g>
				<g>
					<g>
						<g>
							<path class="st2" d="M187.3,134v22.9c0,2.4,1.9,4.3,4.3,4.3h20.6c2.4,0,4.3-1.9,4.3-4.3V134H187.3z"/>
						</g>
					</g>
					<g>
						<g>
							<g>
								<path class="st8" d="M206,149.6h-1.9l-0.3,1.8h-1.5l0.3-1.8H200l-0.3,1.8h-1.5l0.3-1.8h-1.7l0.2-1.3h1.7l0.5-2.6h-1.7
									l0.2-1.3h1.8l0.3-1.8h1.5l-0.3,1.8h2.7l0.3-1.8h1.5l-0.3,1.8h1.8l-0.2,1.3h-1.8l-0.5,2.6h1.8L206,149.6z M200.2,148.3l2.7,0
									l0.5-2.6h-2.7L200.2,148.3z"/>
							</g>
						</g>
					</g>
				</g>
			</g>
			<g>
				<g>
					<g>
						<rect x="222.6" y="164.2" class="st9" width="13.4" height="5.6"/>
					</g>
					<g>
						<rect x="222.8" y="168.2" class="st4" width="13.2" height="1.7"/>
					</g>
				</g>
				<g>
					<g>
						<rect x="23.8" y="164" class="st4" width="8.7" height="5.9"/>
					</g>
					<g>
						<polygon class="st4" points="30.6,172.5 27.9,169.9 27.9,164 30.6,161.5 33.1,161.5 33,172.5 						"/>
					</g>
					<g>
						<rect x="31.6" y="161.5" class="st9" width="192.7" height="11"/>
					</g>
					<g>
						<rect x="31.6" y="169.5" class="st4" width="192.5" height="3"/>
					</g>
					<g>
						<rect x="31.6" y="161.4" class="st10" width="192.5" height="3"/>
					</g>
					<g>
						<rect x="14" y="166.4" class="st4" width="8.7" height="1.1"/>
					</g>
					<g>
						<rect x="15.7" y="166.3" class="st11" width="8.8" height="1.3"/>
					</g>
					<g>
						<rect x="20" y="165.4" class="st4" width="8.7" height="3"/>
					</g>
				</g>
				<g>
					<g>
						<polygon class="st4" points="215.3,175.9 215.3,174.7 151.4,174.7 151.4,178 213,178 						"/>
					</g>
				</g>
				<g>
					<rect x="204.1" y="161.5" class="st4" width="11.2" height="14.1"/>
				</g>
			</g>
			<g>
				<g>
					<g>
						<path class="st12" d="M170,154.1c0,1.5-1.1,2.7-2.6,2.7h-117c-1.5,0-2.7-1.1-2.7-2.6V76c0-1.5,1.1-2.7,2.6-2.7l117,0
							c1.5,0,2.7,1.1,2.7,2.6V154.1z"/>
					</g>
					<polygon class="st13" points="53.9,151.6 164.5,151.5 164.4,79.5 53.8,79.5 					"/>
					<circle class="st14" cx="108.8" cy="76.7" r="1"/>
					<rect x="59.6" y="153.9" class="st15" width="8.4" height="2.6"/>
					<rect x="150.1" y="153.9" class="st15" width="8.4" height="2.6"/>
				</g>
				<polygon class="st13" points="53.8,151.6 113.6,151.5 113.6,79.5 53.8,79.5 				"/>
				<g class="st16">
					<g>
						<g>
							<g>
								<rect x="60.7" y="87" class="st17" width="9.3" height="1.3"/>
								<rect x="71.5" y="87" class="st2" width="3.7" height="1.3"/>
								<rect x="76.6" y="87" class="st2" width="7.3" height="1.3"/>
								<rect x="64.1" y="94.2" class="st2" width="7.4" height="1.3"/>
								<rect x="79.7" y="94.2" class="st2" width="3.8" height="1.3"/>
								<rect x="73.5" y="94.2" class="st2" width="4.2" height="1.3"/>
								<rect x="62.6" y="90.6" class="st2" width="1.8" height="1.3"/>
								<rect x="66.2" y="90.6" class="st18" width="12.3" height="1.3"/>
								<rect x="80.4" y="90.6" class="st2" width="12.4" height="1.3"/>
							</g>
							<g>
								<rect x="60.7" y="98.2" class="st17" width="9.3" height="1.3"/>
								<rect x="71.5" y="98.2" class="st2" width="3.7" height="1.3"/>
								<rect x="76.6" y="98.2" class="st2" width="7.3" height="1.3"/>
								<rect x="64.1" y="105.4" class="st2" width="7.4" height="1.3"/>
								<rect x="79.7" y="105.4" class="st2" width="3.8" height="1.3"/>
								<rect x="73.5" y="105.4" class="st2" width="4.2" height="1.3"/>
								<rect x="62.6" y="101.8" class="st2" width="1.8" height="1.3"/>
								<rect x="66.2" y="101.8" class="st18" width="12.3" height="1.3"/>
								<rect x="80.4" y="101.8" class="st2" width="12.4" height="1.3"/>
							</g>
							<g>
								<rect x="60.7" y="109.4" class="st17" width="9.3" height="1.3"/>
								<rect x="71.5" y="109.4" class="st2" width="3.7" height="1.3"/>
								<rect x="76.6" y="109.4" class="st2" width="7.3" height="1.3"/>
								<rect x="64.1" y="116.6" class="st2" width="7.4" height="1.3"/>
								<rect x="79.7" y="116.6" class="st2" width="3.8" height="1.3"/>
								<rect x="73.5" y="116.6" class="st2" width="4.2" height="1.3"/>
								<rect x="62.6" y="113" class="st2" width="1.8" height="1.3"/>
								<rect x="66.2" y="113" class="st18" width="12.3" height="1.3"/>
								<rect x="80.4" y="113" class="st2" width="12.4" height="1.3"/>
							</g>
						</g>
					</g>
				</g>
				<g>
					<g>
						<rect x="110.6" y="83.9" class="st19" width="53.8" height="67.6"/>
						<rect x="110.6" y="79.6" class="st4" width="53.8" height="4.6"/>
						<g class="st20">
							<rect x="117.9" y="80.8" class="st21" width="2.2" height="2.1"/>
							<rect x="120.8" y="80.8" class="st21" width="2.2" height="2.1"/>
							<rect x="123.7" y="80.8" class="st22" width="28.5" height="2.1"/>
							<rect x="153" y="80.8" class="st22" width="9.7" height="2.1"/>
						</g>
						<g class="st20">
							<circle class="st21" cx="112.2" cy="81.9" r="0.6"/>
							<circle class="st21" cx="114.1" cy="81.9" r="0.6"/>
							<circle class="st21" cx="116" cy="81.9" r="0.6"/>
						</g>
					</g>
					<rect x="110.7" y="87.1" class="st23" width="53.7" height="20.7"/>
					<rect x="110.7" y="86.1" class="st19" width="53.7" height="2.8"/>
					<rect x="124" y="96.7" class="st23" width="25.7" height="2.7"/>
					<rect x="124" y="94.8" class="st23" width="11.4" height="1.1"/>
					<g>
						<rect x="117.3" y="110.4" class="st23" width="9.3" height="1.1"/>
						<rect x="117.3" y="129.7" class="st23" width="26.4" height="15.9"/>
						<rect x="146" y="129.7" class="st23" width="15.1" height="0.8"/>
						<rect x="146" y="131" class="st23" width="15.1" height="0.8"/>
						<rect x="146" y="117.3" class="st23" width="15.1" height="0.8"/>
						<rect x="134.5" y="110.4" class="st23" width="9.3" height="1.1"/>
						<rect x="151.6" y="110.4" class="st23" width="9.3" height="1.1"/>
						<rect x="117.3" y="112.4" class="st23" width="9.3" height="0.8"/>
						<rect x="134.4" y="112.4" class="st23" width="9.3" height="0.8"/>
						<rect x="151.6" y="112.4" class="st23" width="9.3" height="0.8"/>
					</g>
				</g>
				<g>
					<path class="st3" d="M41.1,161.3h136c2.5,0,5-2,5-4.5H35.6C35.6,159.3,38.6,161.3,41.1,161.3z"/>
				</g>
			</g>
			<g>
				<g>
					<rect x="117.4" y="117.3" class="st4" width="26.1" height="11.3"/>
				</g>
				<g>
					<path class="st19" d="M120.6,120.6h0.9v2h2.4v-2h0.9v4.9H124v-2.1h-2.4v2.1h-0.9V120.6z"/>
					<path class="st19" d="M129.6,121.4H128v4.1h-0.9v-4.1h-1.6v-0.8h4.1V121.4z"/>
					<path class="st19" d="M134.4,120.7C134.4,120.7,134.4,120.6,134.4,120.7l1.2-0.1v4.9h-0.9v-3.4h-0.1l-1.2,3.3
						c0,0,0,0.1-0.1,0.1h-0.9c-0.1,0-0.1-0.1-0.1-0.1l-1.2-3.3h-0.1v3.4h-0.9v-4.9h1.2c0.1,0,0.1,0.1,0.1,0.1l1.4,3.6h0.1
						L134.4,120.7z"/>
					<path class="st19" d="M136.7,120.6h0.9v4.1h2.5v0.8h-3.4V120.6z"/>
				</g>
			</g>
			<g>
				<g>
					<g>
						<g>
							<g>
								<g>
									<g>
										<defs>
											<path id="SVGID_1_" d="M102.5,148.1l0.3,0.1l1.6-4.7l-0.6-0.1c1-6.5-1-13.3-6-18.2c-4.4-4.4-10.2-6.4-15.9-6.2l-0.1-0.7
												l-4.9,1l0,0.4c-3.4,0.9-6.7,2.8-9.4,5.5c-8.3,8.3-8.3,21.8,0,30.2c8.3,8.3,21.8,8.3,30.2,0
												C99.9,153.1,101.4,150.7,102.5,148.1z"/>
										</defs>
										<clipPath id="SVGID_2_">
											<use xlink:href="#SVGID_1_"  style="overflow:visible;"/>
										</clipPath>
										<g class="st24">
											<g>
												<path class="st2" d="M85.8,113.2l26.9,26.9l-26.9,26.9c-1.9,1.9-5.1,1.9-7,0l-26.9-26.9l26.9-26.9
													C80.7,111.3,83.9,111.3,85.8,113.2z"/>
											</g>
											<g>
												<g>
													<g>
														<g>
															<g>
																<path class="st12" d="M173.3,212.5L173.3,212.5l0.6-0.6l-0.6-0.8l-0.2-0.2l0,0c0.1-0.2,0.2-0.3,0.3-0.5c0,0,0,0,0,0
																	c0,0,0-0.1,0.1-0.1c0,0,0-0.1,0.1-0.1c0.1-0.2,0.2-0.4,0.3-0.7l0.3,0.1l1,0.1l0.4-1.4l-0.9-0.4l-0.3-0.1
																	c0.1-0.5,0.1-1.1,0-1.6l0.3-0.1l0.9-0.4l-0.4-1.4l-1,0.1l-0.3,0.1c-0.2-0.5-0.5-1-0.8-1.4l0.2-0.2l0.6-0.8l-1-1
																	l-0.8,0.6l-0.2,0.2c-0.4-0.3-0.9-0.6-1.4-0.8l0.1-0.3l0.1-1l-1.4-0.4l-0.4,0.9l-0.1,0.3c-0.5-0.1-1.1-0.1-1.6,0
																	l-0.1-0.3l-0.4-0.9l-1.4,0.4l0.1,1l0.1,0.3c-0.2,0.1-0.4,0.2-0.6,0.3c0,0-0.1,0-0.1,0.1c-0.2,0.1-0.5,0.3-0.7,0.5
																	l0,0l-0.2-0.2l-0.8-0.6l-0.4,0.4l1.7,1.7c0,0,0,0,0,0l0.6,0.6c0,0,0,0,0,0l0,0c0.1-0.1,0.3,0.2,0.5,0.1
																	c1.5-0.5,3.7-1.2,5.2,0.3c1.6,1.5,2.1,3.6,0.9,5.3c-0.1,0.2-0.2,0.3-0.4,0.4l0,0c0,0,0,0,0,0l0.6,0.6l0,0
																	L173.3,212.5z"/>
															</g>
															<g>
																<path class="st4" d="M170.5,213L170.5,213c0.5-0.2,1-0.5,1.4-0.8l0,0l0.2,0.2l0.8,0.6l0.4-0.4l-2.3-2.3l0,0
																	c-1.7,1.7-4.5,1.7-6.2,0c-1.7-1.7-1.7-4.5,0-6.2l0,0l-2.3-2.3l0,0l-0.5,0.5l0.6,0.8l0.2,0.2l0,0
																	c-0.3,0.4-0.6,0.9-0.8,1.4l0,0l-0.3-0.1l-1-0.1l-0.4,1.4l0.9,0.4l0.3,0.1l0,0c-0.1,0.5-0.1,1.1,0,1.6l0,0l-0.3,0.1
																	l-0.9,0.4l0.4,1.4l1-0.1l0.3-0.1l0,0c0.2,0.5,0.5,1,0.8,1.4l0,0l-0.2,0.2l-0.6,0.8l1,1l0.8-0.6l0.2-0.2l0,0
																	c0.3,0.3,0.7,0.5,1.1,0.7c0.1,0,0.2,0.1,0.3,0.1l0,0l-0.1,0.3l-0.1,1l0.9,0.2l0.5,0.1l0.4-0.9l0.1-0.3l0,0
																	c0.3,0,0.6,0,0.9,0c0.1,0,0.2,0,0.2,0c0.2,0,0.3,0,0.5,0l0,0l0.1,0.3l0.4,0.9l1.4-0.4l-0.1-1L170.5,213z"/>
															</g>
															<g>
																<path class="st12" d="M164.8,210.4c1.8,1.6,4.5,1.6,6.2-0.2c0,0,0,0,0,0l-0.6-0.6c-1.1,1.2-3,1.5-4.5,0.7
																	c-1.7-1-2.3-3.2-1.2-4.9c0.2-0.3,0.4-0.6,0.7-0.8l-0.6-0.6c-0.1,0.1-0.1,0.1-0.2,0.2
																	C163,206,163.1,208.8,164.8,210.4z"/>
															</g>
															<g>
																<path class="st4" d="M169.7,204.1c1.7,1,2.3,3.2,1.2,4.9c-0.1,0.2-0.3,0.4-0.4,0.6l0.6,0.6c1.6-1.8,1.5-4.5-0.2-6.2
																	c-1.7-1.6-4.3-1.6-6,0l0.6,0.6C166.5,203.5,168.3,203.3,169.7,204.1z"/>
															</g>
														</g>
													</g>
												</g>
												<g>
													<g>
														<g>
															<g>
																<path class="st12" d="M171.7,227L171.7,227l0.6-0.6l-0.6-0.8l-0.2-0.2l0,0c0.1-0.2,0.2-0.3,0.3-0.5c0,0,0,0,0,0
																	c0,0,0-0.1,0.1-0.1c0,0,0-0.1,0.1-0.1c0.1-0.2,0.2-0.4,0.3-0.7l0.3,0.1l1,0.1l0.4-1.4l-0.9-0.4l-0.3-0.1
																	c0.1-0.5,0.1-1.1,0-1.6l0.3-0.1l0.9-0.4l-0.4-1.4l-1,0.1l-0.3,0.1c-0.2-0.5-0.5-1-0.8-1.4l0.2-0.2l0.6-0.8l-1-1
																	l-0.8,0.6l-0.2,0.2c-0.4-0.3-0.9-0.6-1.4-0.8l0.1-0.3l0.1-1l-1.4-0.4l-0.4,0.9l-0.1,0.3c-0.5-0.1-1.1-0.1-1.6,0
																	l-0.1-0.3l-0.4-0.9l-1.4,0.4l0.1,1l0.1,0.3c-0.2,0.1-0.4,0.2-0.6,0.3c0,0-0.1,0-0.1,0.1c-0.2,0.1-0.5,0.3-0.7,0.5
																	l0,0l-0.2-0.2l-0.8-0.6l-0.4,0.4l1.7,1.7c0,0,0,0,0,0l0.6,0.6c0,0,0,0,0,0l0,0c0.1-0.1,0.3,0.2,0.5,0.1
																	c1.5-0.5,3.7-1.2,5.2,0.3c1.6,1.5,2.1,3.6,0.9,5.3c-0.1,0.2-0.2,0.3-0.4,0.4l0,0c0,0,0,0,0,0l0.6,0.6l0,0L171.7,227
																	z"/>
															</g>
															<g>
																<path class="st4" d="M168.8,227.5L168.8,227.5c0.5-0.2,1-0.5,1.4-0.8l0,0l0.2,0.2l0.8,0.6l0.4-0.4l-2.3-2.3l0,0
																	c-1.7,1.7-4.5,1.7-6.2,0c-1.7-1.7-1.7-4.5,0-6.2l0,0l-2.3-2.3l0,0l-0.5,0.5l0.6,0.8l0.2,0.2l0,0
																	c-0.3,0.4-0.6,0.9-0.8,1.4l0,0l-0.3-0.1l-1-0.1l-0.4,1.4l0.9,0.4l0.3,0.1l0,0c-0.1,0.5-0.1,1.1,0,1.6l0,0l-0.3,0.1
																	l-0.9,0.4l0.4,1.4l1-0.1l0.3-0.1l0,0c0.2,0.5,0.5,1,0.8,1.4l0,0l-0.2,0.2l-0.6,0.8l1,1l0.8-0.6l0.2-0.2l0,0
																	c0.3,0.3,0.7,0.5,1.1,0.7c0.1,0.1,0.2,0.1,0.3,0.1l0,0l-0.1,0.3l-0.1,1l0.9,0.2l0.5,0.1l0.4-0.9l0.1-0.3l0,0
																	c0.3,0,0.6,0,0.9,0c0.1,0,0.2,0,0.2,0c0.2,0,0.3,0,0.5,0l0,0l0.1,0.3l0.4,0.9l1.4-0.4l-0.1-1L168.8,227.5z"/>
															</g>
															<g>
																<path class="st12" d="M163.2,225c1.8,1.7,4.5,1.6,6.2-0.2c0,0,0,0,0,0l-0.6-0.6c-1.1,1.2-3,1.5-4.5,0.7
																	c-1.7-1-2.3-3.2-1.2-4.9c0.2-0.3,0.4-0.6,0.7-0.8l-0.6-0.6c-0.1,0.1-0.2,0.1-0.2,0.2
																	C161.3,220.5,161.4,223.3,163.2,225z"/>
															</g>
															<g>
																<path class="st4" d="M168,218.7c1.7,1,2.3,3.2,1.2,4.9c-0.1,0.2-0.3,0.4-0.4,0.6l0.6,0.6c1.6-1.8,1.6-4.5-0.2-6.2
																	c-1.7-1.6-4.3-1.6-6,0l0.6,0.6C164.9,218.1,166.6,217.8,168,218.7z"/>
															</g>
														</g>
													</g>
												</g>
											</g>
										</g>
									</g>
									<g>
										<g>
											<g>
												<g>
													<g>
														<polygon class="st4" points="84.6,197.4 82.2,198.3 79.8,197.4 79.8,195.8 84.6,195.8 														"/>
													</g>
													<g>
														<g>
															
																<rect x="75.8" y="166.4" transform="matrix(1.150008e-03 -1 1 1.150008e-03 -85.8441 249.8779)" class="st25" width="12.7" height="3"/>
														</g>
													</g>
													<g>
														<rect x="79.7" y="172.5" class="st4" width="4.9" height="22.6"/>
													</g>
													<g>
														<rect x="79.1" y="194.5" class="st13" width="6.1" height="1.6"/>
													</g>
												</g>
											</g>
										</g>
									</g>
								</g>
							</g>
						</g>
						<g>
							<g>
								<g>
									<g class="st26">
										<g>
											<path class="st27" d="M97.8,130c3.1,3.1,5.1,6.9,5.9,10.9c0.7-6.3-1.3-11.4-6.2-16.2c-8.4-8.4-22.1-8.4-30.5,0
												c-4.8,4.8-6.8,9.7-6.2,15.9c0.9-3.9,2.8-7.6,5.9-10.6C75.3,121.4,89.2,121.4,97.8,130z"/>
										</g>
									</g>
								</g>
							</g>
						</g>
					</g>
					<g>
						<path class="st12" d="M98.2,124.7c-8.7-8.7-22.9-8.7-31.7,0c-4.2,4.2-6.6,9.8-6.6,15.8l0,0l0,0c0,6,2.3,11.6,6.6,15.8
							c8.7,8.7,22.9,8.7,31.7,0c4.2-4.2,6.6-9.8,6.6-15.8l0,0l0,0C104.7,134.6,102.4,128.9,98.2,124.7z M102,140.5
							c0,5.2-2,10.2-5.8,13.9c-7.7,7.7-20.1,7.7-27.8,0c-3.7-3.7-5.8-8.6-5.8-13.9l0,0l0,0c0-5.2,2-10.2,5.8-13.9
							c7.7-7.7,20.1-7.7,27.8,0C100,130.4,102,135.3,102,140.5L102,140.5L102,140.5z"/>
					</g>
				</g>
			</g>
			<g class="st28">
				<path class="st4" d="M71.6,145.7H70V137h4.6c1.6,0,2.4,0.8,2.4,2.2v1.5c0,1.4-0.8,2.2-2.4,2.2h-3V145.7z M75.4,140.3v-0.7
					c0-0.8-0.4-1.2-1.2-1.2h-2.6v3.1h2.6C75.1,141.5,75.4,141.1,75.4,140.3z"/>
				<path class="st4" d="M78.4,137H80v3.5h4.3V137h1.6v8.7h-1.6v-3.8H80v3.8h-1.6V137z"/>
				<path class="st4" d="M89.2,145.7h-1.6V137h4.6c1.6,0,2.4,0.8,2.4,2.2v1.5c0,1.4-0.8,2.2-2.4,2.2h-3V145.7z M93.1,140.3v-0.7
					c0-0.8-0.4-1.2-1.2-1.2h-2.6v3.1h2.6C92.7,141.5,93.1,141.1,93.1,140.3z"/>
			</g>
			<g>
				<path class="st12" d="M86.5,54.4c0.1-0.1,0.2-0.3,0.2-0.5c0-0.2-0.1-0.3-0.2-0.5l-6.1-6.1c-0.3-0.3-0.7-0.3-1,0l-0.3,0.3
					c-0.3,0.3-0.3,0.7,0,1l5.3,5.3l-5.3,5.3c-0.3,0.3-0.3,0.7,0,1l0.3,0.3c0.3,0.3,0.7,0.3,1,0L86.5,54.4z"/>
				<path class="st12" d="M59.4,54.4c-0.1-0.1-0.2-0.3-0.2-0.5c0-0.2,0.1-0.3,0.2-0.5l6.1-6.1c0.3-0.3,0.7-0.3,1,0l0.3,0.3
					c0.3,0.3,0.3,0.7,0,1l-5.3,5.3l5.3,5.3c0.3,0.3,0.3,0.7,0,1l-0.3,0.3c-0.3,0.3-0.7,0.3-1,0L59.4,54.4z"/>
				<path class="st12" d="M77.3,44.3c0.1-0.3,0-0.7-0.4-0.8l-0.6-0.2c-0.3-0.1-0.7,0.1-0.8,0.4l-7.2,19.9c-0.1,0.3,0,0.7,0.4,0.8
					l0.6,0.2c0.3,0.1,0.7,0,0.8-0.4L77.3,44.3z"/>
			</g>
			<rect x="155.4" y="86.9" class="st29" width="6.9" height="0.8"/>
			<rect x="144.4" y="86.9" class="st29" width="9.7" height="0.8"/>
			<g>
				<g>
					<path class="st12" d="M136,197.9h-0.7v-1.5h0.7c0.5,0,1-0.6,1-1.3v-7.1c0-1.6,1.3-2.8,2.8-2.8h2.8v1.5h-2.8
						c-0.7,0-1.3,0.6-1.3,1.3v7.1C138.5,196.6,137.4,197.9,136,197.9z"/>
				</g>
				<g>
					<path class="st12" d="M142.7,209.1h-2.8c-1.6,0-2.8-1.3-2.8-2.8v-7.1c0-0.7-0.4-1.3-1-1.3h-0.7v-1.5h0.7c1.4,0,2.5,1.3,2.5,2.8
						v7.1c0,0.7,0.6,1.3,1.3,1.3h2.8V209.1z"/>
				</g>
			</g>
			<g>
				<g>
					<path class="st12" d="M178.2,196.3h0.7v1.5h-0.7c-0.5,0-1,0.6-1,1.3v7.1c0,1.6-1.3,2.8-2.8,2.8h-2.8v-1.5h2.8
						c0.7,0,1.3-0.6,1.3-1.3v-7.1C175.7,197.6,176.8,196.3,178.2,196.3z"/>
				</g>
				<g>
					<path class="st12" d="M171.6,185.1h2.8c1.6,0,2.8,1.3,2.8,2.8v7.1c0,0.7,0.4,1.3,1,1.3h0.7v1.5h-0.7c-1.4,0-2.5-1.3-2.5-2.8
						v-7.1c0-0.7-0.6-1.3-1.3-1.3h-2.8V185.1z"/>
				</g>
			</g>
			<g>
				<g class="st30">
					<polygon class="st14" points="133.3,51.1 133.3,86 169.8,122.3 169.8,51.1 					"/>
				</g>
				<g>
					<g>
						<defs>
							<path id="SVGID_3_" d="M177.9,80.8V40.9H138c-2.9,0-5.2,2.3-5.2,5.2V86h39.9C175.6,86,177.9,83.7,177.9,80.8z"/>
						</defs>
						<use xlink:href="#SVGID_3_"  style="overflow:visible;fill:#FFFFFF;"/>
						<clipPath id="SVGID_4_">
							<use xlink:href="#SVGID_3_"  style="overflow:visible;"/>
						</clipPath>
						<path class="st31" d="M195.4,82.3C195.4,82.3,195.4,82.3,195.4,82.3l0.3-0.2l0.9-0.7l-0.8-1.3l-1.9-1.9l0,0l-28.4-28.4
							l-1.3-0.8l-0.7,0.9l-0.1,0.2l-1.9-1.9l-1.5,0l-0.2,1.1l0,0.3c-0.5,0.1-1,0.2-1.4,0.3l-1.1-1.1l-1.3,0.8l0.4,1l0.2,0.3
							c-0.5,0.4-0.9,0.8-1.3,1.2L155,52l-1-0.4l-0.8,1.3l1.1,1.1c-0.1,0.2-0.1,0.3-0.2,0.5l0,0.2l0,0.1c-0.1,0.2-0.1,0.4-0.1,0.6
							h-0.4l-1.1,0.1l0,0.8v0.1l0,0.7l1.8,1.8c0,0,0,0,0,0l-0.3,0.2l-0.9,0.7l0.8,1.3l0.4,0.4l-0.5,0.7l-0.1,0.2l-1.8-1.8l-1.6,0
							l-0.2,1.1l0,0.3c-0.5,0.1-1,0.2-1.4,0.3l-1.1-1.1l-1.3,0.8l0.4,1l0.2,0.3c-0.5,0.4-0.9,0.8-1.3,1.2l-0.3-0.2l-1-0.4l-0.8,1.3
							l1.1,1.1c-0.1,0.2-0.1,0.3-0.2,0.5l0,0.2l0,0.1c-0.1,0.2-0.1,0.4-0.1,0.6h-0.3l-1.1,0.1l0,0.8v0.1l0,0.7l1.8,1.8c0,0,0,0,0,0
							l-0.3,0.2l-0.9,0.7l0.8,1.3l1.9,1.9l0,0l28.4,28.4l0.5,0.3l0.8,0.5l0.7-0.9l0.1-0.2l1.9,1.9l1.5,0l0.2-1.1l0-0.3
							c0.5-0.1,1-0.2,1.4-0.3l1.1,1.1l1.3-0.8l-0.4-1l-0.2-0.3c0.5-0.4,0.9-0.8,1.3-1.2l0.3,0.2l1,0.4l0.8-1.3l-1.1-1.1
							c0-0.1,0.1-0.2,0.1-0.3c0,0,0-0.1,0-0.1c0.1-0.2,0.1-0.5,0.2-0.8c0-0.1,0-0.1,0-0.2c0,0,0-0.1,0-0.1l0.3,0l1.1-0.1l0-0.8v-0.1
							l0-0.7l-1.9-1.9l0.3-0.2l0.9-0.7l-0.8-1.3l-0.4-0.4l0.5-0.7l0.1-0.2l1.9,1.9l1.5,0l0.2-1.1l0-0.3c0.5-0.1,1-0.2,1.4-0.3
							l1.1,1.1l1.3-0.8l-0.4-1l-0.2-0.3c0.5-0.4,0.9-0.8,1.3-1.2l0.3,0.2l1,0.4l0.8-1.3l-1.1-1.1c0-0.1,0.1-0.2,0.1-0.2
							c0,0,0-0.1,0-0.1c0.1-0.3,0.1-0.5,0.2-0.8c0-0.1,0-0.1,0-0.2c0,0,0-0.1,0-0.1h0.3l1.1-0.1l0-0.8v-0.1l0-0.7L195.4,82.3z
							 M147.1,69.8c0,0,0,0.1,0,0.1c0,0.1,0,0.2,0.1,0.3C147.2,70,147.1,69.9,147.1,69.8z M156,55.8L156,55.8L156,55.8L156,55.8z
							 M156.9,57.4c0,0,0,0.1,0,0.1c0,0.1,0,0.2,0.1,0.3C157,57.7,156.9,57.5,156.9,57.4z M157.1,58.1c0,0.1,0.1,0.2,0.2,0.3
							c0,0,0,0.1,0,0.1C157.3,58.4,157.2,58.3,157.1,58.1z"/>
					</g>
					<g>
						<path class="st12" d="M167.8,55.6l-0.3,0h0c0-0.3-0.1-0.6-0.2-0.9c0-0.1,0-0.1,0-0.1c-0.1-0.2-0.1-0.5-0.2-0.7l0.3-0.2
							l0.9-0.7l-0.8-1.3l-1,0.4l-0.3,0.2c-0.3-0.5-0.8-0.9-1.2-1.3l0.2-0.3l0.4-1l-1.3-0.8l-0.7,0.9l-0.2,0.3
							c-0.5-0.2-1.1-0.4-1.7-0.5l0-0.3l-0.1-1.1l-1.5,0l-0.2,1.1l0,0.3c-0.6,0.1-1.2,0.2-1.7,0.4l-0.2-0.3l-0.7-0.9l-1.3,0.8l0.4,1
							l0.2,0.3c-0.5,0.4-0.9,0.8-1.3,1.2l-0.3-0.2l-1-0.4l-0.8,1.3l0.9,0.7l0.3,0.2c-0.1,0.2-0.2,0.5-0.3,0.7c0,0.1,0,0.1,0,0.2
							c0,0,0,0.1,0,0.1c0,0,0,0,0,0c-0.1,0.2-0.1,0.4-0.1,0.6h0l-0.3,0l-1.1,0.1l0,0.8v0.1l0,0.7l1.1,0.2l0.3,0h0
							c0.1,0.6,0.2,1.2,0.4,1.7l0,0l-0.3,0.2l-0.9,0.7l0.8,1.3l1-0.4l0.3-0.2l0,0c0.1,0.1,0.2,0.3,0.3,0.4c0.1,0.1,0.1,0.1,0.2,0.2
							c0.2,0.2,0.5,0.5,0.7,0.7l0,0l-0.2,0.3l-0.4,1l0.5,0.3l0.8,0.5l0.7-0.9l0.2-0.3l0,0c0.1,0,0.2,0.1,0.4,0.1
							c0.4,0.2,0.9,0.3,1.3,0.3v0l0,0.3l0.1,1.1l1.5,0l0.2-1.1l0-0.3v0c0.6-0.1,1.2-0.2,1.7-0.4l0,0l0.2,0.3l0.7,0.9l1.3-0.8l-0.4-1
							l-0.2-0.3l0,0c0.5-0.4,0.9-0.8,1.3-1.2l0,0l0.3,0.2l1,0.4l0.8-1.3l-0.9-0.7l-0.3-0.2l0,0c0.2-0.5,0.4-1.1,0.5-1.7h0l0.3,0
							l1.1-0.1l0-0.8v-0.1l0-0.7L167.8,55.6z M156,55.8C156,55.8,156,55.8,156,55.8C156,55.7,156,55.7,156,55.8
							C156,55.7,156,55.8,156,55.8z M164.4,57.5c-0.5,2.1-2.6,3.3-4.7,2.8c-1.8-0.5-3-2.1-2.9-3.9c0-0.3,0-0.5,0.1-0.8
							c0.5-2.1,2.6-3.3,4.7-2.8c1.7,0.4,2.8,1.9,2.9,3.6C164.5,56.7,164.5,57.1,164.4,57.5z"/>
						<path class="st12" d="M157.6,67.9L157.6,67.9c0-0.3-0.1-0.6-0.2-0.9c0,0,0-0.1,0-0.1c-0.1-0.2-0.1-0.5-0.2-0.7l0.3-0.2
							l0.9-0.7l-0.8-1.3l-1,0.4l-0.3,0.2c-0.4-0.5-0.8-0.9-1.2-1.3l0.2-0.3l0.4-1l-1.3-0.8l-0.7,0.9l-0.2,0.3
							c-0.5-0.2-1.1-0.4-1.7-0.5l0-0.3l-0.1-1.1l-1.5,0l-0.2,1.1l0,0.3c-0.6,0.1-1.2,0.2-1.7,0.4l-0.2-0.3l-0.7-0.9l-1.3,0.8l0.4,1
							l0.2,0.3c-0.5,0.4-0.9,0.8-1.3,1.2l-0.3-0.2l-1-0.4l-0.8,1.3l0.9,0.7l0.3,0.2c-0.1,0.2-0.2,0.5-0.3,0.7c0,0.1,0,0.1,0,0.2
							c0,0,0,0.1,0,0.1c0,0,0,0,0,0c-0.1,0.2-0.1,0.4-0.1,0.6h0l-0.3,0l-1.1,0.1l0,0.8v0.1l0,0.7l1.1,0.2l0.3,0h0
							c0.1,0.6,0.2,1.2,0.4,1.7l0,0l-0.3,0.2l-0.9,0.7l0.8,1.3l1-0.4l0.3-0.2l0,0c0.1,0.1,0.2,0.3,0.3,0.4c0.1,0.1,0.1,0.1,0.2,0.2
							c0.2,0.2,0.5,0.5,0.7,0.7l0,0l-0.2,0.3l-0.4,1l0.5,0.3l0.8,0.5l0.7-0.9l0.2-0.3l0,0c0.1,0,0.2,0.1,0.4,0.1
							c0.4,0.2,0.9,0.3,1.3,0.3v0l0,0.3l0.1,1.1l1.5,0l0.2-1.1l0-0.3v0c0.6-0.1,1.2-0.2,1.7-0.4l0,0l0.2,0.3l0.7,0.9l1.3-0.8l-0.4-1
							l-0.2-0.3l0,0c0.5-0.4,0.9-0.8,1.3-1.2l0,0l0.3,0.2l1,0.4l0.8-1.3l-0.9-0.7l-0.3-0.2l0,0c0.2-0.5,0.4-1.1,0.5-1.7h0l0.3,0
							l1.1-0.1l0-0.8v-0.1l0-0.7l-1.1-0.2L157.6,67.9z M146.2,68.2C146.2,68.1,146.2,68.1,146.2,68.2c0-0.1,0-0.1,0-0.1
							C146.2,68.1,146.2,68.1,146.2,68.2z M154.6,69.9c-0.5,2.1-2.6,3.3-4.7,2.8c-1.8-0.5-3-2.1-2.9-3.9c0-0.3,0-0.5,0.1-0.8
							c0.5-2.1,2.6-3.3,4.7-2.8c1.7,0.4,2.8,1.9,2.9,3.6C154.7,69.1,154.7,69.5,154.6,69.9z"/>
					</g>
				</g>
			</g>
		</g>
	</g>
	<g>
		<rect x="250" y="0.2" class="st0" width="250" height="250"/>
		<g>
			<g>
				<path class="st12" d="M303.8,212.3c-2,0-3.7,1.6-3.7,3.7l0,0c0,2,1.6,3.7,3.7,3.7h3.7v-7.3H303.8z"/>
				<path class="st4" d="M307.5,219.6h-3.7c-1.5,0-2.8-0.9-3.3-2.2h7.1V219.6z"/>
				<g>
					<polygon class="st32" points="428.9,219.5 441.7,216 428.9,212.4 420.1,216 					"/>
					<polygon class="st33" points="428.9,219.5 441.7,216 429,217.5 426.5,218.5 					"/>
					<g>
						<path class="st1" d="M310.5,212.3h110.6h3.1h4.3c0.6,0,1.1,0.5,1.1,1.1v0c0,0.6-0.5,1.1-1.1,1.1h-4.3h-3.1l-110.6,0
							c-0.6,0-1.1-0.5-1.1-1.1v0C309.4,212.8,309.9,212.3,310.5,212.3z"/>
						<polygon class="st1" points="428.5,219.6 426,215.8 428.5,212.3 309,212.3 309,219.6 						"/>
						<path class="st34" d="M310.5,214.4l110.6,0h3.1h4.3c0.6,0,1.1,0.5,1.1,1.1v0.9c0,0.6-0.5,1.1-1.1,1.1h-4.3h-3.1H310.5
							c-0.6,0-1.1-0.5-1.1-1.1v-0.9C309.4,214.9,309.9,214.4,310.5,214.4z"/>
						<path class="st35" d="M310.5,217.5h110.6h3.1h4.3c0.6,0,1.1,0.5,1.1,1.1v0c0,0.6-0.5,1.1-1.1,1.1h-4.3h-3.1H310.5
							c-0.6,0-1.1-0.5-1.1-1.1v0C309.4,217.9,309.9,217.5,310.5,217.5z"/>
					</g>
					<polygon class="st12" points="441.7,216 435.8,217.6 435.8,214.3 					"/>
				</g>
				<polygon class="st11" points="312.8,215.4 312.8,219.6 306.7,219.6 306.7,212.3 312.8,212.3 312.8,215.4 				"/>
				<rect x="306.7" y="217.5" class="st36" width="6" height="2.2"/>
			</g>
			<g>
				<g>
					<g>
						<g>
							<path class="st12" d="M485.8,161H475c-5,0-9-4.1-9-9v-9.2c0-3.4-2.7-6.2-6.1-6.2h-8.4v-2.9h8.4c5,0,9,4.1,9,9v9.2
								c0,3.4,2.7,6.2,6.1,6.2h10.8V161z"/>
						</g>
					</g>
					<rect x="449.2" y="132.1" class="st37" width="8.1" height="6"/>
					<g>
						<g>
							<path class="st38" d="M447.2,85.9c0.5,0,0.9,0.4,0.9,0.9v110.1c0,0.5-0.4,0.9-0.9,0.9h-171c-0.5,0-0.9-0.4-0.9-0.9V86.8
								c0-0.5,0.4-0.9,0.9-0.9H447.2z"/>
							<g>
								<path class="st12" d="M297.7,194.2V89.5h146.8v104.8H297.7L297.7,194.2z M276.2,201.3h171c2.4,0,4.4-2,4.4-4.4V86.8
									c0-2.4-2-4.4-4.4-4.4h-171c-2.4,0-4.4,2-4.4,4.4v110.1C271.8,199.3,273.8,201.3,276.2,201.3L276.2,201.3z"/>
							</g>
						</g>
						<g>
							<g>
								<circle class="st37" cx="284.3" cy="141.4" r="7.2"/>
								<circle class="st12" cx="284.3" cy="141.4" r="4.8"/>
							</g>
							<g>
								<rect x="277.7" y="127.4" class="st37" width="12.8" height="4.2"/>
								<rect x="277.7" y="121.2" class="st37" width="12.8" height="4.2"/>
								<rect x="277.7" y="115" class="st37" width="12.8" height="4.2"/>
								<rect x="277.7" y="108.8" class="st37" width="12.8" height="4.2"/>
							</g>
							<g>
								<rect x="277.7" y="169.7" class="st37" width="12.8" height="4.2"/>
								<rect x="277.7" y="163.5" class="st37" width="12.8" height="4.2"/>
								<rect x="277.7" y="157.3" class="st37" width="12.8" height="4.2"/>
								<rect x="277.7" y="151.1" class="st37" width="12.8" height="4.2"/>
							</g>
						</g>
					</g>
					<g>
						<rect x="322.7" y="100.3" class="st2" width="114.9" height="88.1"/>
						<rect x="322.7" y="95.8" class="st39" width="114.9" height="4.8"/>
						<rect x="322.7" y="100.6" class="st12" width="114.9" height="4.2"/>
					</g>
					<g>
						<rect x="304.1" y="96.2" class="st37" width="11.5" height="92.6"/>
						<rect x="304.1" y="96.2" class="st4" width="11.5" height="4.4"/>
					</g>
					<g>
						<rect x="307" y="103.7" class="st40" width="5.5" height="5.5"/>
						<rect x="307" y="111.9" class="st40" width="5.5" height="5.5"/>
						<rect x="307" y="119.8" class="st40" width="5.5" height="5.5"/>
					</g>
					<g>
						<rect x="307" y="129.2" class="st40" width="5.5" height="5.5"/>
						<rect x="307" y="137.4" class="st40" width="5.5" height="5.5"/>
						<rect x="307" y="145.3" class="st40" width="5.5" height="5.5"/>
					</g>
					<g>
						<rect x="307" y="154.6" class="st40" width="5.5" height="5.5"/>
						<rect x="307" y="162.8" class="st40" width="5.5" height="5.5"/>
					</g>
					<g>
						<rect x="308.9" y="172.7" class="st2" width="3.5" height="3.5"/>
						<rect x="307.2" y="171" class="st17" width="3.5" height="3.5"/>
					</g>
					<g>
						<circle class="st41" cx="325.2" cy="98.2" r="0.9"/>
						<circle class="st42" cx="328.4" cy="98.2" r="0.9"/>
						<circle class="st43" cx="331.6" cy="98.2" r="0.9"/>
					</g>
					<path class="st17" d="M411,127.8c-1.1,0-2,0.9-2,2v18c0,3.4-2.7,6.1-6,6.1c-3.3,0-6-2.7-6-6.1v-9.8c0-5.6-4.5-10.2-10.1-10.2
						c-5.6,0-10.1,4.6-10.1,10.2v2.7v3.7v3.5c0,3.4-2.7,6.1-6,6.1c-3.3,0-6-2.7-6-6.1v-9.8c0-5.6-4.5-10.2-10.1-10.2
						c-5.6,0-10.1,4.6-10.1,10.2v18c0,1.1,0.9,2,2,2c1.1,0,2-0.9,2-2v-18c0-3.4,2.7-6.1,6-6.1c3.3,0,6,2.7,6,6.1v9.8
						c0,5.6,4.5,10.2,10.1,10.2c5.6,0,10.1-4.6,10.1-10.2v-3.5v-3.7v-2.7c0-3.4,2.7-6.1,6-6.1c3.3,0,6,2.7,6,6.1v9.8
						c0,5.6,4.5,10.2,10.1,10.2c5.6,0,10.1-4.6,10.1-10.2v-18C413,128.7,412.1,127.8,411,127.8z"/>
					<g>
						<circle class="st0" cx="410.7" cy="130.2" r="4.6"/>
						<g>
							<rect x="410.4" y="128.4" class="st12" width="0.5" height="3.5"/>
						</g>
						<g>
							<rect x="408.9" y="129.9" class="st12" width="3.5" height="0.5"/>
						</g>
					</g>
					<g>
						<path class="st4" d="M476.8,67.1c-0.8,0.8-2.2,0.8-3,0l0,0c-0.8-0.8-0.8-2.2,0-3l3-3c0.8-0.8,2.2-0.8,3,0l0,0
							c0.8,0.8,0.8,2.2,0,3L476.8,67.1z"/>
						
							<rect x="405.9" y="90.8" transform="matrix(0.7071 -0.7071 0.7071 0.7071 64.0209 343.3054)" class="st9" width="80.9" height="7.1"/>
						<g>
							<path class="st4" d="M413,127.9c0.2,0.2,0.2,0.5,0,0.7l-1.8,1.8c-0.2,0.2-0.5,0.2-0.7,0l0,0c-0.2-0.2-0.2-0.5,0-0.7l1.8-1.8
								C412.5,127.7,412.8,127.7,413,127.9L413,127.9z"/>
							<g>
								<polygon class="st4" points="421.3,124.5 416.2,119.5 415.1,120.6 411.3,128.4 412.5,129.6 420.2,125.6 								"/>
							</g>
						</g>
						<g>
							
								<rect x="406.4" y="92.8" transform="matrix(0.7071 -0.7071 0.7071 0.7071 63.9567 343.3121)" class="st9" width="79.9" height="3.3"/>
							
								<rect x="404.6" y="91.6" transform="matrix(0.7071 -0.7071 0.7071 0.7071 64.7251 341.4657)" class="st9" width="79.9" height="1.9"/>
							
								<rect x="408.9" y="96.9" transform="matrix(0.7071 -0.7071 0.7071 0.7071 62.9198 345.8239)" class="st4" width="79.9" height="0.1"/>
							<polygon class="st4" points="477.2,68.7 479.1,66.8 479,66.7 477.1,68.7 							"/>
							
								<rect x="408.2" y="95.3" transform="matrix(0.7071 -0.7071 0.7071 0.7071 63.2018 345.1346)" class="st4" width="79.9" height="1.9"/>
							<polygon class="st4" points="477.7,65.4 475.4,63.1 474,61.7 472.1,63.7 473.5,65 475.8,67.4 477.1,68.7 479,66.7 							"/>
						</g>
						<g>
							
								<rect x="416.4" y="111" transform="matrix(0.7067 -0.7075 0.7075 0.7067 45.6793 333.4602)" class="st10" width="17.2" height="1.3"/>
							<g>
								<path class="st4" d="M429.4,105.8c0.4-0.1,0.7,0.1,0.7,0.1l0.9,0.6l-11.2,11.2l-0.4-1.1c0,0-0.1-0.3,0-0.7
									c0.1-0.5,0.4-0.7,0.4-0.7l1.5-1.5l0.9-0.3l0.5-1l6-6C428.7,106.2,429.1,105.9,429.4,105.8z"/>
							</g>
						</g>
					</g>
					<g class="st30">
						<path class="st44" d="M420.7,135.2L420.7,135.2l-0.5-0.4l-7.7-4l-0.3,0.3l-1-1c-0.2-0.2-0.5-0.2-0.7,0c-0.2,0.2-0.2,0.5,0,0.7
							l1,1l-0.3,0.3l3.9,7.7l1.1,1.1l3.2,3.2c0,0.1,0,0.3,0,0.4c0.1,0.5,0.4,0.7,0.4,0.7l1.5,1.5l0.9,0.3l0.5,1l6,6
							c0,0,0.4,0.4,0.7,0.4c0.2,0,0.4,0,0.5,0l9.7,9.7l12.1,12.2v-10.1L420.7,135.2z"/>
					</g>
					<g>
						<g>
							<g>
								<rect x="327.8" y="110.1" class="st37" width="26.7" height="36.5"/>
							</g>
							<g>
								<rect x="327.8" y="110.1" class="st4" width="26.7" height="4.4"/>
							</g>
						</g>
						<g>
							<rect x="327.8" y="111.7" class="st37" width="10.2" height="3.5"/>
						</g>
						<g>
							<g>
								<circle class="st40" cx="331" cy="118.6" r="1.2"/>
							</g>
							<g>
								<rect x="333.8" y="117.3" class="st40" width="2.6" height="2.6"/>
							</g>
							<g>
								<rect x="337.9" y="118.2" class="st40" width="14.6" height="0.7"/>
							</g>
						</g>
						<g>
							<circle class="st40" cx="331" cy="126.4" r="1.2"/>
						</g>
						<g>
							<rect x="333.8" y="123.7" class="st2" width="5.2" height="5.2"/>
							<path class="st4" d="M339.3,129.2h-5.8v-5.8h5.8V129.2z M334.1,128.6h4.6V124h-4.6V128.6z"/>
						</g>
						<g>
							<rect x="340.6" y="126" class="st40" width="12" height="0.7"/>
						</g>
						<g>
							<g>
								<circle class="st40" cx="331" cy="135" r="1.2"/>
							</g>
							<g>
								<rect x="333.8" y="133.8" class="st40" width="2.6" height="2.6"/>
							</g>
							<g>
								<rect x="337.9" y="134.7" class="st40" width="14.6" height="0.7"/>
							</g>
						</g>
						<g>
							<g>
								<circle class="st40" cx="331" cy="141.8" r="1.2"/>
							</g>
							<g>
								<rect x="333.8" y="140.5" class="st40" width="2.6" height="2.6"/>
							</g>
							<g>
								<rect x="337.9" y="141.4" class="st40" width="14.6" height="0.7"/>
							</g>
						</g>
						<g>
							<rect x="328.4" y="121.3" class="st4" width="25.7" height="0.4"/>
						</g>
						<g>
							<rect x="328.4" y="131.2" class="st4" width="25.7" height="0.4"/>
						</g>
						<g>
							<rect x="328.4" y="138.2" class="st4" width="25.7" height="0.4"/>
						</g>
					</g>
				</g>
				<g>
					<circle class="st45" cx="376.6" cy="54.3" r="23.9"/>
					<path class="st38" d="M400.6,54.3c0-0.2,0-0.4,0-0.5L388.8,42l-24.5,24.5l11.7,11.7c0.2,0,0.4,0,0.5,0
						C389.8,78.2,400.6,67.5,400.6,54.3z"/>
					<g>
						<path class="st2" d="M399.9,52.1h-8.5v4.4h8.5c1.2,0,2.2-1,2.2-2.2C402.1,53.1,401.1,52.1,399.9,52.1z"/>
					</g>
					<g>
						<circle class="st17" cx="376.6" cy="54.3" r="15.8"/>
						<path class="st46" d="M376.6,44.3c7.7,0,14.2,5.6,15.5,12.9c0.2-0.9,0.3-1.9,0.3-2.9c0-8.7-7.1-15.8-15.8-15.8
							c-8.7,0-15.8,7.1-15.8,15.8c0,1,0.1,1.9,0.3,2.9C362.5,49.8,368.9,44.3,376.6,44.3z"/>
						<path class="st2" d="M376.6,71.6c-9.5,0-17.3-7.8-17.3-17.3c0-9.5,7.8-17.3,17.3-17.3c9.5,0,17.3,7.8,17.3,17.3
							C393.9,63.8,386.2,71.6,376.6,71.6z M376.6,40c-7.9,0-14.3,6.4-14.3,14.3s6.4,14.3,14.3,14.3c7.9,0,14.3-6.4,14.3-14.3
							S384.5,40,376.6,40z"/>
					</g>
				</g>
				<g>
					<path class="st45" d="M304.5,60.6h-40.3v40.3c0,2.9,2.4,5.3,5.3,5.3h20.1h20.1V90.4V65.8C309.7,62.9,307.4,60.6,304.5,60.6z"/>
					<path class="st38" d="M309.7,90.4l-22-22.1h-0.8h-0.1h-0.6l-7.6,15.8l3.6,3.6c1.3,2.2,1.7,4.6,1.7,4.7h-1.2l0,2H282l0,4.1
						l7.6,7.6h20.1V90.4z M278.8,84.2C278.8,84.2,278.8,84.2,278.8,84.2C278.8,84.2,278.8,84.2,278.8,84.2z M279.1,84.4
						C279.1,84.4,279.1,84.4,279.1,84.4C279.1,84.4,279.1,84.4,279.1,84.4z M279.5,84.7c0,0,0.1,0.1,0.1,0.1
						C279.5,84.8,279.5,84.7,279.5,84.7z M280,85.1C280,85.1,280,85.2,280,85.1C280,85.2,280,85.1,280,85.1z M280.5,85.6
						c0,0,0.1,0.1,0.1,0.1C280.6,85.7,280.6,85.6,280.5,85.6z"/>
					<g>
						<g>
							<path class="st21" d="M286.2,68.3h0.6h0.1h0.8l7.6,15.8c0,0-2.4,1.5-3.5,3.4c-1.4,2.3-1.8,4.9-1.8,4.9c-0.8,0-2.1,0-3.1,0
								c-0.1,0-0.1,0-0.2,0c-1,0-2,0-2.8,0c0,0-0.4-2.6-1.8-4.9c-1.1-1.9-3.5-3.4-3.5-3.4L286.2,68.3z"/>
							<path class="st12" d="M288.9,82.3c0,1.1-0.9,1.9-1.9,1.9c-1.1,0-1.9-0.9-1.9-1.9c0-0.8,0.5-1.5,1.2-1.8V68.3h1.5v12.2
								C288.4,80.8,288.9,81.5,288.9,82.3z"/>
						</g>
						<rect x="282.7" y="92.3" class="st47" width="8.4" height="2"/>
						<rect x="282" y="94.3" class="st12" width="9.8" height="4.1"/>
					</g>
				</g>
			</g>
		</g>
	</g>
	<g>
		<rect x="500" y="0.2" class="st0" width="250" height="250"/>
		<g>
			<rect x="537.2" y="72.6" class="st2" width="166.5" height="83.9"/>
			<g>
				<g>
					<g>
						<g>
							<rect x="539.4" y="64" class="st1" width="161.5" height="38.1"/>
							<g>
								<rect x="539.4" y="55.6" class="st39" width="161.5" height="8.4"/>
								<g>
									<circle class="st41" cx="542.2" cy="59.8" r="1"/>
									<circle class="st42" cx="545.8" cy="59.8" r="1"/>
									<circle class="st43" cx="549.3" cy="59.8" r="1"/>
								</g>
								<rect x="552.8" y="57.7" class="st21" width="4.1" height="3.9"/>
								<rect x="558.1" y="57.7" class="st21" width="4.1" height="3.9"/>
								<rect x="563.5" y="57.7" class="st22" width="104.1" height="3.9"/>
								<rect x="668.9" y="57.7" class="st22" width="28.9" height="3.9"/>
							</g>
						</g>
						<rect x="551.8" y="123.6" class="st48" width="38.6" height="17.3"/>
						<rect x="647" y="123.6" class="st19" width="38.6" height="17.3"/>
						<g class="st49">
							<polygon class="st21" points="545.5,126.1 543,123.9 545.5,121.7 							"/>
							<polygon class="st21" points="692.1,135.3 694.7,133.1 692.1,130.8 							"/>
							<g>
								<rect x="551.5" y="108.3" class="st21" width="38" height="2.1"/>
								<rect x="600.2" y="108.3" class="st21" width="37.7" height="2.1"/>
								<rect x="647" y="108.3" class="st21" width="38.9" height="2.1"/>
								<rect x="551.5" y="112" class="st39" width="38" height="0.8"/>
								<rect x="600.2" y="112" class="st39" width="37.5" height="0.8"/>
								<rect x="647" y="112" class="st39" width="38.9" height="0.8"/>
								<rect x="551.5" y="113.5" class="st39" width="19.3" height="0.8"/>
								<rect x="600.2" y="113.5" class="st39" width="19" height="0.8"/>
								<rect x="647.1" y="113.5" class="st39" width="28.5" height="0.8"/>
							</g>
							<rect x="600.1" y="123.6" class="st21" width="38.6" height="17.3"/>
							<g>
								<rect x="551.5" y="143" class="st39" width="38.8" height="0.8"/>
								<rect x="551.5" y="144.5" class="st39" width="38.8" height="0.8"/>
								<rect x="551.5" y="146" class="st39" width="31.9" height="0.8"/>
							</g>
							<g>
								<rect x="600" y="143" class="st39" width="38.8" height="0.8"/>
								<rect x="600" y="144.5" class="st39" width="38.8" height="0.8"/>
								<rect x="600" y="146" class="st39" width="31.3" height="0.8"/>
							</g>
							<g>
								<rect x="647" y="143" class="st39" width="38.8" height="0.8"/>
								<rect x="647" y="144.5" class="st39" width="38.8" height="0.8"/>
								<rect x="647" y="146" class="st39" width="38.8" height="0.8"/>
							</g>
						</g>
					</g>
					<polygon class="st2" points="615.1,74 630.2,82.7 615.1,91.4 					"/>
				</g>
				<g>
					<g>
						<g>
							<path class="st2" d="M649.3,176.9c-4.9,0-4.1-5-4.1-5v-6.5v-8.9h-21.6H598v8.9v6.5c0,0,0.8,5-4.1,5h-11.2v3.4H623h1.3h36.2
								v-3.4H649.3z"/>
						</g>
						<path class="st50" d="M648.1,176.8L648.1,176.8c-3.5-0.8-2.9-4.8-2.9-4.8v-6.5v-8.9h-21.6h-16.8c-0.3,0.1-0.6-0.1-0.8,0h-8
							v3.1l17.4,17.2C615.4,176.8,640.6,176.8,648.1,176.8z"/>
					</g>
					<path class="st12" d="M703.3,47.5H536.4c-2.8,0-5,2.2-5,5v103.4c0,2.8,2.2,5,5,5h166.9c2.8,0,5-2.2,5-5V52.4
						C708.3,49.7,706,47.5,703.3,47.5z M700.3,152.8H539.4V55.5h160.9V152.8z"/>
				</g>
			</g>
			<g>
				<path class="st47" d="M680.5,132.8l26.5,26.3c0,0,0.6-0.8,0.8-1.2c0.4-0.8,0.5-1.9,0.5-1.9V72.3l-9.7,1l-13.7,57.5L680.5,132.8z
					"/>
				<g>
					<path class="st48" d="M725.3,128.9v0.9h8.6l-6.9-3.7c0,0-4.4,0-6.6,0v5.7c1.2,0,2.5-0.2,3.5-0.2v-2.7H725.3z"/>
					<g>
						<g>
							<g>
								<g>
									<g>
										<g>
											<g>
												<path class="st4" d="M679.4,129.8c-0.9,0-1.6-0.7-1.6-1.6V79.4c0-0.9,0.7-1.6,1.6-1.6h22.3c0.9,0,1.6,0.7,1.6,1.6v48.9
													c0,0.9-0.7,1.6-1.6,1.6H679.4z"/>
											</g>
											<g>
												<rect x="677.4" y="90.7" class="st9" width="0.6" height="3.2"/>
											</g>
											<g>
												<rect x="677.4" y="86.5" class="st9" width="0.6" height="3.2"/>
											</g>
											<g>
												<rect x="677.4" y="84.1" class="st9" width="0.6" height="1.9"/>
											</g>
										</g>
										<rect x="689.7" y="124.7" class="st9" width="2.7" height="2.7"/>
										<rect x="690" y="80.7" class="st9" width="1.3" height="1.3"/>
									</g>
								</g>
								<rect x="679.8" y="84.7" class="st2" width="21.5" height="37.7"/>
								<rect x="679.8" y="98.9" class="st48" width="21.5" height="9.7"/>
								<g>
									<rect x="682.1" y="112.7" class="st39" width="17.3" height="0.7"/>
									<rect x="682.1" y="114" class="st39" width="17.3" height="0.7"/>
									<rect x="682.1" y="115.3" class="st39" width="17.3" height="0.7"/>
									<rect x="682.1" y="116.6" class="st39" width="17.3" height="0.7"/>
									<rect x="682.1" y="118" class="st39" width="14.7" height="0.7"/>
								</g>
								<rect x="679.8" y="84.7" class="st1" width="21.5" height="14.2"/>
								<polygon class="st2" points="688.6,88.4 695.1,92.1 688.6,95.9 								"/>
							</g>
							<g>
								<g>
									<g>
										<g>
											<g>
												<rect x="713.5" y="70.6" class="st50" width="8.9" height="110"/>
											</g>
										</g>
									</g>
								</g>
								<g class="st26">
									<g>
										<g class="st28">
											<g>
												
													<rect x="716.3" y="124" transform="matrix(1.586181e-03 -1 1 1.586181e-03 590.3008 841.4615)" class="st12" width="0.6" height="2.3"/>
												<rect x="715.4" y="129.9" class="st12" width="2.3" height="0.6"/>
												<rect x="715.4" y="127.4" class="st12" width="1.6" height="0.6"/>
												<rect x="715.4" y="126.1" class="st12" width="0.9" height="0.6"/>
												
													<rect x="715.4" y="128.7" transform="matrix(1 -1.762422e-03 1.762422e-03 1 -0.2261 1.2618)" class="st12" width="0.9" height="0.6"/>
											</g>
											<g>
												<rect x="715.4" y="135" class="st12" width="2.3" height="0.6"/>
												<rect x="715.4" y="132.5" class="st12" width="1.6" height="0.6"/>
												<rect x="715.4" y="131.2" class="st12" width="0.9" height="0.6"/>
												<rect x="715.4" y="133.8" class="st12" width="0.9" height="0.6"/>
											</g>
											<g>
												<rect x="715.4" y="140.2" class="st12" width="2.3" height="0.6"/>
												<rect x="715.4" y="137.6" class="st12" width="1.6" height="0.6"/>
												<rect x="715.4" y="136.3" class="st12" width="0.9" height="0.6"/>
												
													<rect x="715.6" y="138.7" transform="matrix(1.759631e-03 -1 1 1.759631e-03 575.431 854.7686)" class="st12" width="0.6" height="0.9"/>
											</g>
											<g>
												<rect x="715.4" y="145.3" class="st12" width="2.3" height="0.6"/>
												<rect x="715.4" y="142.7" class="st12" width="1.6" height="0.6"/>
												
													<rect x="715.6" y="141.3" transform="matrix(1.758084e-03 -1 1 1.758084e-03 572.8781 857.3181)" class="st12" width="0.6" height="0.9"/>
												<polygon class="st12" points="715.4,144.6 715.4,144 716.3,144 716.3,144.6 												"/>
											</g>
										</g>
										<g class="st28">
											<g>
												
													<rect x="716.3" y="88.2" transform="matrix(1.583390e-03 -1 1 1.583390e-03 626.0329 805.7883)" class="st12" width="0.6" height="2.3"/>
												<rect x="715.4" y="94.2" class="st12" width="2.3" height="0.6"/>
												<rect x="715.4" y="91.7" class="st12" width="1.6" height="0.6"/>
												<rect x="715.4" y="90.4" class="st12" width="0.9" height="0.6"/>
												
													<rect x="715.4" y="92.9" transform="matrix(1 -1.762422e-03 1.762422e-03 1 -0.1632 1.2618)" class="st12" width="0.9" height="0.6"/>
											</g>
											<g>
												<rect x="715.4" y="99.3" class="st12" width="2.3" height="0.6"/>
												<rect x="715.4" y="96.8" class="st12" width="1.6" height="0.6"/>
												<rect x="715.4" y="95.5" class="st12" width="0.9" height="0.6"/>
												<rect x="715.4" y="98" class="st12" width="0.9" height="0.6"/>
											</g>
											<g>
												<rect x="715.4" y="104.4" class="st12" width="2.3" height="0.6"/>
												<rect x="715.4" y="101.9" class="st12" width="1.6" height="0.6"/>
												<rect x="715.4" y="100.6" class="st12" width="0.9" height="0.6"/>
												
													<rect x="715.6" y="103" transform="matrix(1.762422e-03 -1 1 1.762422e-03 611.1594 819.1017)" class="st12" width="0.6" height="0.9"/>
											</g>
											<g>
												<rect x="715.4" y="109.5" class="st12" width="2.3" height="0.6"/>
												<rect x="715.4" y="107" class="st12" width="1.6" height="0.6"/>
												<polygon class="st12" points="715.4,106.3 715.4,105.7 716.3,105.7 716.3,106.3 												"/>
												<polygon class="st12" points="715.4,108.8 715.4,108.3 716.3,108.3 716.3,108.8 												"/>
											</g>
											<g>
												<rect x="715.4" y="114.6" class="st12" width="2.3" height="0.6"/>
												<rect x="715.4" y="112" class="st12" width="1.6" height="0.6"/>
												<rect x="715.4" y="110.8" class="st12" width="0.9" height="0.6"/>
												<rect x="715.4" y="113.3" class="st12" width="0.9" height="0.6"/>
											</g>
											<g>
												
													<rect x="715.4" y="119.7" transform="matrix(1 -1.762422e-03 1.762422e-03 1 -0.2104 1.263)" class="st12" width="2.3" height="0.6"/>
												<rect x="715.4" y="117.2" class="st12" width="1.6" height="0.6"/>
												
													<rect x="715.6" y="115.7" transform="matrix(1.581998e-03 -1 1 1.581998e-03 598.5621 831.8226)" class="st12" width="0.6" height="0.9"/>
												<rect x="715.4" y="118.4" class="st12" width="0.9" height="0.6"/>
											</g>
											<g>
												<rect x="715.4" y="119.7" class="st12" width="2.3" height="0.6"/>
												
													<rect x="715.9" y="121.8" transform="matrix(1.765534e-03 -1 1 1.765534e-03 592.39 838.5223)" class="st12" width="0.6" height="1.6"/>
												<rect x="715.4" y="121" class="st12" width="0.9" height="0.6"/>
												
													<rect x="715.6" y="123.4" transform="matrix(1.762733e-03 -1 1 1.762733e-03 590.7674 839.4507)" class="st12" width="0.6" height="0.9"/>
											</g>
										</g>
									</g>
									<g>
										<g class="st28">
											<g>
												<rect x="715.4" y="150.4" class="st12" width="2.3" height="0.6"/>
												<rect x="715.4" y="147.8" class="st12" width="1.6" height="0.6"/>
												<rect x="715.4" y="146.6" class="st12" width="0.9" height="0.6"/>
												
													<rect x="715.4" y="149.1" transform="matrix(1 -1.761181e-03 1.761181e-03 1 -0.262 1.261)" class="st12" width="0.9" height="0.6"/>
											</g>
											<g>
												<rect x="715.4" y="155.5" class="st12" width="2.3" height="0.6"/>
												<rect x="715.4" y="152.9" class="st12" width="1.6" height="0.6"/>
												<rect x="715.4" y="151.7" class="st12" width="0.9" height="0.6"/>
												<rect x="715.4" y="154.2" class="st12" width="0.9" height="0.6"/>
											</g>
											<g>
												<rect x="715.4" y="160.6" class="st12" width="2.3" height="0.6"/>
												<rect x="715.4" y="158.1" class="st12" width="1.6" height="0.6"/>
												<rect x="715.4" y="156.8" class="st12" width="0.9" height="0.6"/>
												
													<rect x="715.6" y="159.2" transform="matrix(1.760871e-03 -1 1 1.760871e-03 554.9739 875.1897)" class="st12" width="0.6" height="0.9"/>
											</g>
											<g>
												<rect x="715.4" y="165.7" class="st12" width="2.3" height="0.6"/>
												<rect x="715.4" y="163.2" class="st12" width="1.6" height="0.6"/>
												<polygon class="st12" points="715.4,162.5 715.4,161.9 716.3,161.9 716.3,162.5 												"/>
												<polygon class="st12" points="715.4,165 715.4,164.4 716.3,164.4 716.3,165 												"/>
											</g>
											<g>
												<rect x="715.4" y="170.8" class="st12" width="2.3" height="0.6"/>
												<rect x="715.4" y="168.2" class="st12" width="1.6" height="0.6"/>
												<rect x="715.4" y="167" class="st12" width="0.9" height="0.6"/>
												<rect x="715.4" y="169.5" class="st12" width="0.9" height="0.6"/>
											</g>
											<g>
												
													<rect x="715.4" y="175.9" transform="matrix(1 -1.763977e-03 1.763977e-03 1 -0.3097 1.2642)" class="st12" width="2.3" height="0.6"/>
												<rect x="715.4" y="173.3" class="st12" width="1.6" height="0.6"/>
												
													<rect x="715.6" y="171.9" transform="matrix(1.584784e-03 -1 1 1.584784e-03 542.3736 887.9197)" class="st12" width="0.6" height="0.9"/>
												<rect x="715.4" y="174.6" class="st12" width="0.9" height="0.6"/>
											</g>
											<g>
												<rect x="715.4" y="175.9" class="st12" width="2.3" height="0.6"/>
												
													<rect x="715.9" y="177.9" transform="matrix(1.761181e-03 -1 1 1.761181e-03 536.2064 894.6106)" class="st12" width="0.6" height="1.6"/>
												<rect x="715.4" y="177.2" class="st12" width="0.9" height="0.6"/>
												<polygon class="st12" points="715.4,180.3 715.4,179.7 716.3,179.7 716.3,180.3 												"/>
											</g>
										</g>
									</g>
								</g>
							</g>
							<path class="st48" d="M733,77.6l-6.9,3.7c0,0-4.6,0-6.6,0l-4.6-4.6l-9.2,0l-0.9,0.9h-26.1l1-2c0,0,0.5-1.2,1.8-1.4
								c0.9-0.2,19.9-3.6,19.9-3.6l21.1,0l0,8h1.8v-0.9H733z"/>
							<path class="st48" d="M705.7,130.6l-0.9-0.9h-26.1l1,2c0,0,0.5,1.2,1.8,1.4c0.9,0.2,19.9,3.7,19.9,3.7h10.2v21.9h3.7v-28.2
								l-0.4,0.1L705.7,130.6z"/>
						</g>
					</g>
					<polygon class="st5" points="709.3,144.3 709.3,148.4 710.3,149.3 710.3,149.8 710.3,151.2 710.3,151.7 709.3,152.6 
						709.3,156.6 711.7,158.8 711.7,151.2 711.7,149.8 711.7,142.2 					"/>
					<g>
						<path class="st48" d="M720.4,158.8h3.5v-28.2c-1,0-2.2,0-3.5,0V158.8z"/>
					</g>
				</g>
				<g>
					<g>
						<path class="st1" d="M675.8,180.4l-67,0v0l-37.5,0l-55.2,0l0,21.7l58.5,0l60.8,0v0l37.1,0l53.7,0v-21.7L675.8,180.4z
							 M720.1,194c-1.5,0-2.8-1.3-2.8-2.8c0-1.5,1.3-2.8,2.8-2.8c1.5,0,2.8,1.3,2.8,2.8C722.9,192.8,721.7,194,720.1,194z"/>
					</g>
					<g class="st16">
						<path class="st34" d="M517.7,180.4v1.8c0,2.5,2,4.4,4.4,4.4h192.8c2.5,0,4.4-2,4.4-4.4v-1.8H517.7z"/>
					</g>
					<g class="st26">
						<rect x="591.2" y="180.4" class="st4" width="0.8" height="3.1"/>
						<rect x="574" y="180.4" class="st4" width="0.8" height="3.1"/>
						<rect x="582.6" y="180.4" class="st4" width="0.8" height="3.1"/>
						<rect x="586.9" y="180.4" class="st4" width="0.8" height="3.1"/>
						<rect x="578.3" y="180.4" class="st4" width="0.8" height="3.1"/>
						<rect x="556.8" y="180.4" class="st4" width="0.8" height="3.1"/>
						<rect x="565.4" y="180.4" class="st4" width="0.8" height="3.1"/>
						<rect x="569.7" y="180.4" class="st4" width="0.8" height="3.1"/>
						<rect x="561.1" y="180.4" class="st4" width="0.8" height="3.1"/>
						<rect x="539.6" y="180.4" class="st4" width="0.8" height="3.1"/>
						<rect x="548.2" y="180.4" class="st4" width="0.8" height="3.1"/>
						<rect x="552.5" y="180.4" class="st4" width="0.8" height="3.1"/>
						<rect x="543.9" y="180.4" class="st4" width="0.8" height="3.1"/>
						<rect x="522.4" y="180.4" class="st4" width="0.8" height="3.1"/>
						<rect x="531" y="180.4" class="st4" width="0.8" height="3.1"/>
						<rect x="535.3" y="180.4" class="st4" width="0.8" height="3.1"/>
						<rect x="526.7" y="180.4" class="st4" width="0.8" height="3.1"/>
						<rect x="715.8" y="180.4" class="st4" width="0.8" height="3.1"/>
						<rect x="698.6" y="180.4" class="st4" width="0.8" height="3.1"/>
						<rect x="707.2" y="180.4" class="st4" width="0.8" height="3.1"/>
						<rect x="711.5" y="180.4" class="st4" width="0.8" height="3.1"/>
						<rect x="702.9" y="180.4" class="st4" width="0.8" height="3.1"/>
						<rect x="681.4" y="180.4" class="st4" width="0.8" height="3.1"/>
						<rect x="690" y="180.4" class="st4" width="0.8" height="3.1"/>
						<rect x="694.3" y="180.4" class="st4" width="0.8" height="3.1"/>
						<rect x="685.7" y="180.4" class="st4" width="0.8" height="3.1"/>
						<rect x="664.3" y="180.4" class="st4" width="0.8" height="3.1"/>
						<rect x="672.9" y="180.4" class="st4" width="0.8" height="3.1"/>
						<rect x="677.2" y="180.4" class="st4" width="0.8" height="3.1"/>
						<rect x="668.6" y="180.4" class="st4" width="0.8" height="3.1"/>
						<rect x="647.1" y="180.4" class="st4" width="0.8" height="3.1"/>
						<rect x="655.7" y="180.4" class="st4" width="0.8" height="3.1"/>
						<rect x="660" y="180.4" class="st4" width="0.8" height="3.1"/>
						<rect x="651.4" y="180.4" class="st4" width="0.8" height="3.1"/>
						<rect x="629.9" y="180.4" class="st4" width="0.8" height="3.1"/>
						<rect x="638.5" y="180.4" class="st4" width="0.8" height="3.1"/>
						<rect x="642.8" y="180.4" class="st4" width="0.8" height="3.1"/>
						<rect x="634.2" y="180.4" class="st4" width="0.8" height="3.1"/>
						<rect x="612.7" y="180.4" class="st4" width="0.8" height="3.1"/>
						<rect x="621.3" y="180.4" class="st4" width="0.8" height="3.1"/>
						<rect x="625.6" y="180.4" class="st4" width="0.8" height="3.1"/>
						<rect x="617" y="180.4" class="st4" width="0.8" height="3.1"/>
						<rect x="608.4" y="180.4" class="st4" width="0.8" height="3.1"/>
						<rect x="599.8" y="180.4" class="st4" width="0.8" height="3.1"/>
						<rect x="604.1" y="180.4" class="st4" width="0.8" height="3.1"/>
						<rect x="595.5" y="180.4" class="st4" width="0.8" height="3.1"/>
					</g>
				</g>
				<polygon class="st47" points="570.1,103.6 627.2,160.8 565.4,160.8 567.3,103.6 				"/>
				<g>
					<g>
						<g>
							<g>
								<rect x="519.8" y="114.8" class="st9" width="1.1" height="3.2"/>
							</g>
							<g>
								<rect x="519.8" y="110.7" class="st9" width="1.1" height="3.2"/>
							</g>
							<g>
								<rect x="519.8" y="108.2" class="st9" width="1.1" height="1.9"/>
							</g>
						</g>
						<path class="st4" d="M570.8,178.5c0,1.1-0.9,1.9-1.9,1.9h-46.7c-1.1,0-1.9-0.9-1.9-1.9v-73.6c0-1.1,0.9-1.9,1.9-1.9h46.7
							c1.1,0,1.9,0.9,1.9,1.9V178.5z"/>
						<rect x="543.7" y="175" class="st9" width="2.7" height="2.7"/>
						<rect x="544.4" y="105.2" class="st9" width="1.3" height="1.3"/>
						<rect x="522.7" y="108.3" class="st2" width="45.7" height="63.6"/>
					</g>
					<rect x="529.2" y="138.7" class="st48" width="32.7" height="14.7"/>
					<g>
						<rect x="529" y="155.1" class="st39" width="32.9" height="0.7"/>
						<rect x="529" y="156.4" class="st39" width="32.9" height="0.7"/>
						<rect x="529" y="157.7" class="st39" width="27.9" height="0.7"/>
					</g>
					<g>
						<rect x="529.1" y="162.1" class="st21" width="32.7" height="9.8"/>
					</g>
					<rect x="522.7" y="108.3" class="st1" width="45.7" height="27.2"/>
					<polygon class="st2" points="541.2,114.4 553.9,121.8 541.2,129.1 					"/>
				</g>
				<polygon class="st51" points="516.1,200.2 516.1,202.5 574.6,202.5 635.4,202.5 635.4,202.5 672.5,202.5 726.2,202.5 
					726.2,200.2 				"/>
			</g>
		</g>
	</g>
</g>
</svg>
